<svg xmlns="http://www.w3.org/2000/svg" width="1600" height="1000" viewBox="0 0 1600 1000" role="img"
     aria-label="Porchlight architecture: inbound channels and The Porch UI on the left, the FastAPI layer with DynamoDB and an EventBridge sweep in the middle, and Amazon Bedrock AgentCore on the right running the Strands graph intake to matcher to outreach to steward over a policy layer that raises Decision Cards.">
  <title>Porchlight — Strands Agents on Amazon Bedrock AgentCore</title>
  <style>
    svg { font-family: 'Inter', -apple-system, BlinkMacSystemFont, 'Segoe UI', Roboto, 'Helvetica Neue', Arial, sans-serif; }
    .mono { font-family: 'SFMono-Regular', ui-monospace, Menlo, Consolas, 'Liberation Mono', monospace; }
    .h1   { font-size: 31px; font-weight: 700; fill: #0F172A; letter-spacing: -0.4px; }
    .sub  { font-size: 14px; fill: #64748B; }
    .card { fill: #FFFFFF; stroke: #CBD5E1; stroke-width: 1.4; }
    .ct   { font-size: 16.5px; font-weight: 700; fill: #0F172A; }
    .ct2  { font-size: 14px; font-weight: 700; fill: #0F172A; }
    .cs   { font-size: 11px; fill: #64748B; }
    .cb   { font-size: 12.5px; fill: #334155; }
    .cn   { font-size: 10.5px; fill: #94A3B8; }
    .lbl  { font-size: 10.5px; fill: #64748B; }
    .chip { font-size: 11px; fill: #475569; }
    .divider { stroke: #E2E8F0; stroke-width: 1; }
    .flow  { stroke: #334155; stroke-width: 1.8; fill: none; marker-end: url(#arrowDark); }
    .flow2 { stroke: #94A3B8; stroke-width: 1.6; fill: none; marker-end: url(#arrowGrey); }
    .amber { stroke: #D97706; stroke-width: 2.4; fill: none; marker-end: url(#arrowAmber); }
    .pill  { fill: #F1F5F9; stroke: #E2E8F0; stroke-width: 1; }
  </style>
  <defs>
    <marker id="arrowDark" viewBox="0 0 12 12" refX="11" refY="6" markerWidth="11" markerHeight="11"
            markerUnits="userSpaceOnUse" orient="auto-start-reverse">
      <path d="M1,1 L11,6 L1,11 Z" fill="#334155"/>
    </marker>
    <marker id="arrowGrey" viewBox="0 0 12 12" refX="11" refY="6" markerWidth="10" markerHeight="10"
            markerUnits="userSpaceOnUse" orient="auto-start-reverse">
      <path d="M1,1 L11,6 L1,11 Z" fill="#94A3B8"/>
    </marker>
    <marker id="arrowAmber" viewBox="0 0 12 12" refX="11" refY="6" markerWidth="12" markerHeight="12"
            markerUnits="userSpaceOnUse" orient="auto-start-reverse">
      <path d="M1,1 L11,6 L1,11 Z" fill="#D97706"/>
    </marker>
  </defs>

  <rect x="0" y="0" width="1600" height="1000" fill="#FFFFFF"/>

  <!-- ============================= header ============================= -->
  <text class="h1" x="36" y="48">Porchlight</text>
  <text class="sub" x="36" y="72">Autonomous mutual-aid dispatch — Strands Agents on Amazon Bedrock AgentCore</text>
  <path class="flow" d="M1268,40 L1300,40"/>
  <text x="1310" y="44" font-size="13" fill="#475569">autonomous flow</text>
  <path class="amber" d="M1268,64 L1300,64"/>
  <text x="1310" y="68" font-size="13" fill="#B45309">the porch light comes on</text>
  <line class="divider" x1="36" y1="88" x2="1564" y2="88"/>

  <!-- ============================= column A ============================= -->

  <!-- coordinator -->
  <rect class="card" x="36" y="100" width="240" height="112" rx="14"/>
  <circle cx="72" cy="156" r="24" fill="#EEF2F7"/>
  <circle cx="72" cy="149" r="7.5" fill="#94A3B8"/>
  <path d="M61,170 C61,157 83,157 83,170 Z" fill="#94A3B8"/>
  <text class="ct" x="108" y="150">Coordinator</text>
  <text class="cs" x="108" y="170">one exhausted human</text>
  <text class="cn" x="108" y="188">taps a card · skims the log</text>

  <path class="flow2" d="M156,212 L156,234"/>

  <!-- the porch -->
  <rect class="card" x="36" y="236" width="240" height="264" rx="14"/>
  <rect x="52" y="254" width="20" height="20" rx="6" fill="#8C4FFF"/>
  <circle cx="62" cy="264" r="5.6" fill="none" stroke="#FFFFFF" stroke-width="1.4"/>
  <line x1="56.4" y1="264" x2="67.6" y2="264" stroke="#FFFFFF" stroke-width="1.2"/>
  <text class="ct" x="82" y="270">The Porch</text>
  <text class="cs" x="52" y="296">CloudFront + S3 · React + Vite + TS</text>

  <rect class="pill" x="52" y="312" width="112" height="26" rx="13"/>
  <text class="chip" x="108" y="329" text-anchor="middle">Decision Cards</text>
  <rect class="pill" x="172" y="312" width="92" height="26" rx="13"/>
  <text class="chip" x="218" y="329" text-anchor="middle">Quiet Log</text>
  <rect class="pill" x="52" y="346" width="112" height="26" rx="13"/>
  <text class="chip" x="108" y="363" text-anchor="middle">Requests board</text>
  <rect class="pill" x="172" y="346" width="92" height="26" rx="13"/>
  <text class="chip" x="218" y="363" text-anchor="middle">Volunteers</text>
  <rect class="pill" x="52" y="380" width="112" height="26" rx="13"/>
  <text class="chip" x="108" y="397" text-anchor="middle">Demo inbox</text>
  <rect class="pill" x="172" y="380" width="92" height="26" rx="13"/>
  <text class="chip" x="218" y="397" text-anchor="middle">Live trace</text>

  <line class="divider" x1="52" y1="428" x2="260" y2="428"/>
  <text class="cn" x="52" y="450">the lantern is dim until a card opens</text>
  <text class="cn" x="52" y="468">/api/* is proxied same-origin</text>

  <path class="flow" d="M276,380 L336,380" marker-start="url(#arrowDark)"/>
  <text x="306" y="370" text-anchor="middle" font-size="9.5" fill="#64748B">JSON + SSE</text>

  <!-- neighbours & volunteers -->
  <rect class="card" x="36" y="524" width="240" height="310" rx="14"/>
  <rect x="52" y="542" width="20" height="20" rx="6" fill="#475569"/>
  <circle cx="62" cy="549.5" r="3.2" fill="#FFFFFF"/>
  <path d="M56,562 C56,555.5 68,555.5 68,562 Z" fill="#FFFFFF"/>
  <text class="ct2" x="82" y="557">Neighbours &amp; volunteers</text>
  <text class="cs" x="52" y="582">however they actually write</text>

  <rect x="54" y="599" width="14" height="14" rx="4" fill="#E2E8F0"/>
  <text class="cb" x="78" y="610">Text message</text>
  <rect x="54" y="625" width="14" height="14" rx="4" fill="#E2E8F0"/>
  <text class="cb" x="78" y="636">Email</text>
  <rect x="54" y="651" width="14" height="14" rx="4" fill="#E2E8F0"/>
  <text class="cb" x="78" y="662">Web form</text>
  <rect x="54" y="677" width="14" height="14" rx="4" fill="#E2E8F0"/>
  <text class="cb" x="78" y="688">Voicemail transcript</text>
  <rect x="54" y="703" width="14" height="14" rx="4" fill="#E2E8F0"/>
  <text class="cb" x="78" y="714">Photo of a paper slip</text>
  <text class="cn" x="78" y="732">multimodal image content blocks</text>

  <line class="divider" x1="52" y1="752" x2="260" y2="752"/>
  <text class="cs" x="52" y="774">out ← confirmations, reminders</text>
  <text class="cs" x="52" y="792">and check-ins — SES in live mode</text>

  <path class="flow" d="M276,560 L336,560" marker-start="url(#arrowDark)"/>
  <text class="lbl" x="306" y="550" text-anchor="middle">in / out</text>

  <!-- ============================= column B ============================= -->

  <!-- eventbridge -->
  <rect class="card" x="336" y="100" width="236" height="136" rx="14"/>
  <rect x="352" y="118" width="20" height="20" rx="6" fill="#E7157B"/>
  <path d="M357,128 L367,128 M362,123 L362,133" stroke="#FFFFFF" stroke-width="1.5"/>
  <text class="ct2" x="382" y="133">EventBridge Scheduler</text>
  <text class="cs" x="352" y="160">hourly sweep — send what is due,</text>
  <text class="cs" x="352" y="176">escalate what has gone quiet</text>
  <text class="cs" x="352" y="192">06:00 — the morning brief</text>
  <text class="cn" x="352" y="214">→ sweep Lambda · api/scheduled.py</text>

  <path class="flow2" d="M454,236 L454,258"/>

  <!-- api -->
  <rect class="card" x="336" y="260" width="236" height="340" rx="14"/>
  <rect x="352" y="278" width="20" height="20" rx="6" fill="#ED7100"/>
  <path d="M356.5,293.5 L362,283 L367.5,293.5" stroke="#FFFFFF" stroke-width="1.6" fill="none"/>
  <text class="ct2" x="382" y="293">API — FastAPI</text>
  <text class="cs" x="352" y="320">Lambda Function URL · streaming</text>
  <text class="cn" x="352" y="336">Mangum + Lambda Web Adapter</text>
  <line class="divider" x1="352" y1="352" x2="556" y2="352"/>
  <text class="mono" x="356" y="374" font-size="10" fill="#475569">POST /api/inbox</text>
  <text class="mono" x="356" y="394" font-size="10" fill="#475569">GET  /api/porch</text>
  <text class="mono" x="356" y="414" font-size="10" fill="#475569">POST /api/decisions/{id}/resolve</text>
  <text class="mono" x="356" y="434" font-size="10" fill="#475569">GET  /api/events   (SSE)</text>
  <line class="divider" x1="352" y1="452" x2="556" y2="452"/>
  <text x="352" y="474" font-size="11.5" font-weight="700" fill="#0F172A">porchlight.orchestrator</text>
  <text class="cn" x="352" y="492">LocalOrchestrator — runs the graph</text>
  <text class="cn" x="352" y="508">AgentCoreOrchestrator — invokes it</text>
  <line class="divider" x1="352" y1="526" x2="556" y2="526"/>
  <text class="cs" x="352" y="548">run_sweep · run_brief are model-free</text>
  <text class="cn" x="352" y="568">deterministic housekeeping, hourly</text>

  <path class="flow2" d="M454,600 L454,622" marker-start="url(#arrowGrey)"/>

  <!-- dynamodb -->
  <rect class="card" x="336" y="624" width="236" height="210" rx="14"/>
  <rect x="352" y="642" width="20" height="20" rx="6" fill="#C925D1"/>
  <path d="M356.5,648 L367.5,648 M356.5,652.5 L367.5,652.5 M356.5,657 L367.5,657"
        stroke="#FFFFFF" stroke-width="1.4"/>
  <text class="ct2" x="382" y="657">DynamoDB</text>
  <text class="cs" x="352" y="684">one table + GSI1, on-demand</text>
  <circle cx="356" cy="704" r="2.2" fill="#CBD5E1"/><text x="366" y="708" font-size="11.5" fill="#475569">requests · attempts</text>
  <circle cx="356" cy="724" r="2.2" fill="#CBD5E1"/><text x="366" y="728" font-size="11.5" fill="#475569">volunteers · neighbours</text>
  <circle cx="356" cy="744" r="2.2" fill="#CBD5E1"/><text x="366" y="748" font-size="11.5" fill="#475569">decisions — the cards</text>
  <circle cx="356" cy="764" r="2.2" fill="#CBD5E1"/><text x="366" y="768" font-size="11.5" fill="#475569">quiet log · messages</text>
  <circle cx="356" cy="784" r="2.2" fill="#CBD5E1"/><text x="366" y="788" font-size="11.5" fill="#475569">trace events (TTL)</text>
  <line class="divider" x1="352" y1="802" x2="556" y2="802"/>
  <text class="cn" x="352" y="822">version-checked atomic writes</text>

  <!-- ============================= column C ============================= -->

  <rect x="700" y="100" width="864" height="580" rx="18" fill="#F3FBF9" stroke="#01A88D" stroke-width="1.6"/>
  <rect x="720" y="118" width="22" height="22" rx="6" fill="#01A88D"/>
  <rect x="725" y="123" width="12" height="12" rx="3" fill="none" stroke="#FFFFFF" stroke-width="1.4"/>
  <circle cx="731" cy="129" r="2.2" fill="#FFFFFF"/>
  <text x="752" y="136" font-size="18" font-weight="700" fill="#0F172A">Amazon Bedrock AgentCore</text>
  <text x="1544" y="136" text-anchor="end" font-size="11.5" fill="#94A3B8">one Runtime · one Memory · us-east-1</text>

  <!-- runtime -->
  <rect x="720" y="156" width="824" height="352" rx="14" fill="#FFFFFF" stroke="#CBD5E1" stroke-width="1.4"/>
  <text x="740" y="182" font-size="14" font-weight="700" fill="#0F172A">AgentCore Runtime · CodeZip</text>
  <text x="1524" y="182" text-anchor="end" font-size="11.5" fill="#94A3B8">BedrockAgentCoreApp · SSE streaming</text>

  <!-- short-circuit edge: intake → steward -->
  <path d="M815,266 C815,186 1448,186 1448,266" fill="none" stroke="#94A3B8" stroke-width="1.6"
        stroke-dasharray="6 4" marker-end="url(#arrowGrey)"/>
  <text x="1131" y="196" text-anchor="middle" font-size="11" fill="#64748B">not a request, or a duplicate → the steward just replies</text>

  <!-- retry cycle: outreach → matcher -->
  <path d="M1237,266 C1237,232 1026,232 1026,266" fill="none" stroke="#475569" stroke-width="1.7"
        marker-end="url(#arrowDark)"/>
  <text x="1131" y="228" text-anchor="middle" font-size="11" fill="#475569">declined → ask the next candidate  (bounded cycle)</text>

  <!-- graph nodes -->
  <rect x="742" y="266" width="146" height="100" rx="12" fill="#F8FFFE" stroke="#0F766E" stroke-width="1.6"/>
  <text x="815" y="294" text-anchor="middle" font-size="16" font-weight="700" fill="#0F172A">intake</text>
  <rect x="777" y="304" width="76" height="19" rx="9.5" fill="#E6F6F2"/>
  <text x="815" y="317.5" text-anchor="middle" font-size="10.5" fill="#047857">Haiku 4.5</text>
  <text x="815" y="338" text-anchor="middle" font-size="10.5" fill="#64748B">message → AidRequest</text>
  <text x="815" y="352" text-anchor="middle" font-size="10.5" fill="#64748B">structured output</text>

  <rect x="953" y="266" width="146" height="100" rx="12" fill="#F8FFFE" stroke="#0F766E" stroke-width="1.6"/>
  <text x="1026" y="294" text-anchor="middle" font-size="16" font-weight="700" fill="#0F172A">matcher</text>
  <rect x="988" y="304" width="76" height="19" rx="9.5" fill="#E6F6F2"/>
  <text x="1026" y="317.5" text-anchor="middle" font-size="10.5" fill="#047857">Sonnet 4.6</text>
  <text x="1026" y="338" text-anchor="middle" font-size="10.5" fill="#64748B">ranked MatchPlan</text>
  <text x="1026" y="352" text-anchor="middle" font-size="10.5" fill="#64748B">fairness · zone · memory</text>

  <rect x="1164" y="266" width="146" height="100" rx="12" fill="#F8FFFE" stroke="#0F766E" stroke-width="1.6"/>
  <text x="1237" y="294" text-anchor="middle" font-size="16" font-weight="700" fill="#0F172A">outreach</text>
  <rect x="1199" y="304" width="76" height="19" rx="9.5" fill="#E6F6F2"/>
  <text x="1237" y="317.5" text-anchor="middle" font-size="10.5" fill="#047857">Sonnet 4.6</text>
  <text x="1237" y="338" text-anchor="middle" font-size="10.5" fill="#64748B">asks, reads the reply</text>
  <text x="1237" y="352" text-anchor="middle" font-size="10.5" fill="#64748B">interpret_reply sub-agent</text>

  <rect x="1375" y="266" width="146" height="100" rx="12" fill="#F8FFFE" stroke="#0F766E" stroke-width="1.6"/>
  <text x="1448" y="294" text-anchor="middle" font-size="16" font-weight="700" fill="#0F172A">steward</text>
  <rect x="1410" y="304" width="76" height="19" rx="9.5" fill="#E6F6F2"/>
  <text x="1448" y="317.5" text-anchor="middle" font-size="10.5" fill="#047857">Haiku 4.5</text>
  <text x="1448" y="338" text-anchor="middle" font-size="10.5" fill="#64748B">confirms · reminds</text>
  <text x="1448" y="352" text-anchor="middle" font-size="10.5" fill="#64748B">writes to memory</text>

  <path class="flow" d="M890,316 L951,316"/>
  <text x="920" y="306" text-anchor="middle" font-size="9.5" fill="#64748B">AidRequest</text>
  <path class="flow" d="M1101,316 L1162,316"/>
  <text x="1131" y="306" text-anchor="middle" font-size="9.5" fill="#64748B">MatchPlan</text>
  <path class="flow" d="M1312,316 L1373,316"/>
  <text x="1342" y="306" text-anchor="middle" font-size="9.5" fill="#64748B">accepted</text>

  <!-- api → runtime -->
  <path class="flow" d="M574,316 L740,316"/>
  <text class="mono" x="636" y="306" text-anchor="middle" font-size="9" fill="#475569">invoke_agent_runtime</text>
  <text x="636" y="332" text-anchor="middle" font-size="10" fill="#94A3B8">session = request id</text>

  <!-- ticks into the policy band -->
  <line x1="815" y1="366" x2="815" y2="384" stroke="#FDBA74" stroke-width="1.4" stroke-dasharray="3 3"/>
  <line x1="1026" y1="366" x2="1026" y2="384" stroke="#FDBA74" stroke-width="1.4" stroke-dasharray="3 3"/>
  <line x1="1237" y1="366" x2="1237" y2="384" stroke="#FDBA74" stroke-width="1.4" stroke-dasharray="3 3"/>
  <line x1="1448" y1="366" x2="1448" y2="384" stroke="#FDBA74" stroke-width="1.4" stroke-dasharray="3 3"/>

  <!-- policy band -->
  <rect x="740" y="386" width="784" height="110" rx="12" fill="#FFF7ED" stroke="#FDBA74" stroke-width="1.5"/>
  <text x="760" y="412" font-size="14" font-weight="700" fill="#B45309">Policy layer</text>
  <text x="878" y="412" font-size="11" fill="#92400E">safety · money · vetting · concern · unmatched · quiet hours · PII redaction</text>
  <text x="760" y="434" font-size="11" fill="#92400E">PorchlightPolicy — a Strands InterventionHandler on every tool call  ·  PolicyGateHook at the graph gate</text>

  <rect x="760" y="448" width="64" height="26" rx="13" fill="#FFEDD5" stroke="#FDBA74"/>
  <text x="792" y="465" text-anchor="middle" font-size="11.5" font-weight="600" fill="#9A3412">Deny</text>
  <rect x="832" y="448" width="80" height="26" rx="13" fill="#FFEDD5" stroke="#FDBA74"/>
  <text x="872" y="465" text-anchor="middle" font-size="11.5" font-weight="600" fill="#9A3412">Confirm</text>
  <rect x="920" y="448" width="68" height="26" rx="13" fill="#FFEDD5" stroke="#FDBA74"/>
  <text x="954" y="465" text-anchor="middle" font-size="11.5" font-weight="600" fill="#9A3412">Guide</text>
  <rect x="996" y="448" width="94" height="26" rx="13" fill="#FFEDD5" stroke="#FDBA74"/>
  <text x="1043" y="465" text-anchor="middle" font-size="11.5" font-weight="600" fill="#9A3412">Transform</text>
  <rect x="1098" y="448" width="84" height="26" rx="13" fill="#FFEDD5" stroke="#FDBA74"/>
  <text x="1140" y="465" text-anchor="middle" font-size="11.5" font-weight="600" fill="#9A3412">Proceed</text>

  <text x="1504" y="458" text-anchor="end" font-size="10.5" fill="#B45309">one card per request per kind —</text>
  <text x="1504" y="474" text-anchor="end" font-size="10.5" fill="#B45309">already_approved() stops the second ask</text>

  <!-- decision card back to the api -->
  <path class="amber" d="M740,441 L576,441"/>
  <text x="636" y="430" text-anchor="middle" font-size="12" font-weight="700" fill="#B45309">Decision Card</text>
  <text x="636" y="456" text-anchor="middle" font-size="10" fill="#B45309">= a Strands interrupt</text>

  <!-- runtime → memory / observability -->
  <path class="flow2" d="M922,508 L922,526"/>
  <path class="flow2" d="M1342,508 L1342,526"/>

  <rect x="720" y="528" width="404" height="128" rx="12" fill="#FFFFFF" stroke="#CBD5E1" stroke-width="1.4"/>
  <rect x="740" y="546" width="20" height="20" rx="6" fill="#01A88D"/>
  <path d="M745,552 L755,552 M745,556 L755,556 M745,560 L751,560" stroke="#FFFFFF" stroke-width="1.3"/>
  <text class="ct2" x="770" y="561">AgentCore Memory</text>
  <text x="740" y="586" font-size="11" fill="#64748B">Strands MemoryManager over a custom MemoryStore</text>
  <text x="740" y="604" font-size="11" fill="#64748B">long-term volunteer and neighbour facts: the matcher recalls,</text>
  <text x="740" y="620" font-size="11" fill="#64748B">the steward writes.  SQLite FTS5 / BM25 when offline.</text>
  <text class="mono" x="740" y="641" font-size="10.5" fill="#94A3B8">porchlight/memory/</text>

  <rect x="1140" y="528" width="404" height="128" rx="12" fill="#FFFFFF" stroke="#CBD5E1" stroke-width="1.4"/>
  <rect x="1160" y="546" width="20" height="20" rx="6" fill="#E7157B"/>
  <path d="M1164,560 L1168,553 L1172,557 L1176,549" stroke="#FFFFFF" stroke-width="1.5" fill="none"/>
  <text class="ct2" x="1190" y="561">AgentCore Observability</text>
  <text x="1160" y="586" font-size="11" fill="#64748B">StrandsTelemetry → OTLP → CloudWatch GenAI traces</text>
  <text x="1160" y="604" font-size="11" fill="#64748B">every node, tool call, model call and policy verdict is a</text>
  <text x="1160" y="620" font-size="11" fill="#64748B">span — and the same events feed the live trace drawer.</text>
  <text class="mono" x="1160" y="641" font-size="10.5" fill="#94A3B8">porchlight/telemetry.py</text>

  <!-- bus down to the shelf -->
  <path d="M1132,680 L1132,698" stroke="#94A3B8" stroke-width="1.6" fill="none"/>
  <path d="M909,698 L1355,698" stroke="#94A3B8" stroke-width="1.6" fill="none"/>
  <path class="flow2" d="M909,698 L909,714"/>
  <path class="flow2" d="M1355,698 L1355,714"/>

  <rect class="card" x="700" y="716" width="418" height="118" rx="14"/>
  <rect x="720" y="734" width="20" height="20" rx="6" fill="#01A88D"/>
  <path d="M725,744 L730,738 L735,744 L730,750 Z" fill="#FFFFFF"/>
  <text class="ct2" x="750" y="749">Amazon Bedrock</text>
  <text x="720" y="776" font-size="11.5" fill="#475569">Claude Sonnet 4.6 — matcher, outreach, the brief</text>
  <text x="720" y="796" font-size="11.5" fill="#475569">Claude Haiku 4.5 — intake, steward, volunteer sim</text>
  <text class="cn" x="720" y="818">one Model swap (MockModel) and the whole system runs with no AWS</text>

  <rect class="card" x="1146" y="716" width="418" height="118" rx="14"/>
  <rect x="1166" y="734" width="20" height="20" rx="6" fill="#7AA116"/>
  <path d="M1171,740 L1181,740 L1181,748 L1171,748 Z" fill="none" stroke="#FFFFFF" stroke-width="1.4"/>
  <text class="ct2" x="1196" y="749">Amazon S3 — session state</text>
  <text x="1166" y="776" font-size="11.5" fill="#475569">S3SessionManager persists the graph session and</text>
  <text x="1166" y="794" font-size="11.5" fill="#475569">every open interrupt — so a card can be answered</text>
  <text x="1166" y="812" font-size="11.5" fill="#475569">hours later, in a different process.</text>

  <!-- ============================= feature band ============================= -->
  <rect x="36" y="858" width="1528" height="126" rx="14" fill="#F8FAFC" stroke="#E2E8F0"/>
  <text x="56" y="884" font-size="13" font-weight="700" fill="#334155">Where the Strands features live</text>

  <circle cx="59.5" cy="906" r="3.5" fill="#01A88D"/>
  <text x="70" y="910" font-size="12" font-weight="600" fill="#0F172A">Structured output</text>
  <text class="mono" x="70" y="926" font-size="10" fill="#64748B">agents/outputs.py</text>
  <circle cx="307.5" cy="906" r="3.5" fill="#01A88D"/>
  <text x="318" y="910" font-size="12" font-weight="600" fill="#0F172A">Interventions</text>
  <text class="mono" x="318" y="926" font-size="10" fill="#64748B">policy.py — PorchlightPolicy</text>
  <circle cx="555.5" cy="906" r="3.5" fill="#01A88D"/>
  <text x="566" y="910" font-size="12" font-weight="600" fill="#0F172A">Interrupts + resume</text>
  <text class="mono" x="566" y="926" font-size="10" fill="#64748B">graph.py — resume_decision</text>
  <circle cx="803.5" cy="906" r="3.5" fill="#01A88D"/>
  <text x="814" y="910" font-size="12" font-weight="600" fill="#0F172A">Hooks: audit + trace</text>
  <text class="mono" x="814" y="926" font-size="10" fill="#64748B">policy.py — AuditHook, TraceHook</text>
  <circle cx="1051.5" cy="906" r="3.5" fill="#01A88D"/>
  <text x="1062" y="910" font-size="12" font-weight="600" fill="#0F172A">Graph: edges + cycle</text>
  <text class="mono" x="1062" y="926" font-size="10" fill="#64748B">graph.py — GraphBuilder</text>
  <circle cx="1299.5" cy="906" r="3.5" fill="#01A88D"/>
  <text x="1310" y="910" font-size="12" font-weight="600" fill="#0F172A">Agent as a tool</text>
  <text class="mono" x="1310" y="926" font-size="10" fill="#64748B">agents/outreach.py</text>

  <circle cx="59.5" cy="952" r="3.5" fill="#8C4FFF"/>
  <text x="70" y="956" font-size="12" font-weight="600" fill="#0F172A">MCP server + client</text>
  <text class="mono" x="70" y="972" font-size="10" fill="#64748B">mcp_server.py, tools/mcp_bridge.py</text>
  <circle cx="307.5" cy="952" r="3.5" fill="#8C4FFF"/>
  <text x="318" y="956" font-size="12" font-weight="600" fill="#0F172A">MemoryManager</text>
  <text class="mono" x="318" y="972" font-size="10" fill="#64748B">memory/ — Sqlite + AgentCore</text>
  <circle cx="555.5" cy="952" r="3.5" fill="#8C4FFF"/>
  <text x="566" y="956" font-size="12" font-weight="600" fill="#0F172A">Session managers</text>
  <text class="mono" x="566" y="972" font-size="10" fill="#64748B">graph.py — File / S3</text>
  <circle cx="803.5" cy="952" r="3.5" fill="#8C4FFF"/>
  <text x="814" y="956" font-size="12" font-weight="600" fill="#0F172A">strands_tools</text>
  <text class="mono" x="814" y="972" font-size="10" fill="#64748B">agents/intake.py — current_time</text>
  <circle cx="1051.5" cy="952" r="3.5" fill="#8C4FFF"/>
  <text x="1062" y="956" font-size="12" font-weight="600" fill="#0F172A">Multimodal intake</text>
  <text class="mono" x="1062" y="972" font-size="10" fill="#64748B">agents/intake.py — image blocks</text>
  <circle cx="1299.5" cy="952" r="3.5" fill="#8C4FFF"/>
  <text x="1310" y="956" font-size="12" font-weight="600" fill="#0F172A">Custom Model provider</text>
  <text class="mono" x="1310" y="972" font-size="10" fill="#64748B">testing/mock_model.py</text>
</svg>
